<?xml version="1.0" encoding="UTF-8"?>
<svg id="Layer_1" data-name="Layer 1" xmlns="http://www.w3.org/2000/svg" version="1.1" viewBox="0 0 1440 320">
  <defs>
    <style>
      .cls-1 {
        fill: #ee1b24;
        stroke-width: 0px;
      }
    </style>
  </defs>
  <path class="cls-1" d="M0,64l11.4-5.3c11.5-5.7,34.6-15.7,57.6,16,22.4,32.3,45,106.3,68,122.6,23,15.7,46-26.3,69-48,22.6-21.3,45-21.3,68,5.4,23.1,26.3,46,80.3,69,58.6,22.7-21.3,46-117.3,68-154.6,23.3-37.7,46-15.7,69,21.3,22.9,37,46,91,69,128,22.4,37,45,59,68,42.7,23-15.7,46-69.7,69-69.4,22.6-.3,45,53.7,68,58.7,23.1,5,46-37,69-69.3,22.7-31.7,46-53.7,68-48,23.3,5.3,46,37.3,69,37.3s46-32,69-21.3c22.4,10.3,45,64.3,68,53.3s46-85,69-122.7c22.6-37.3,45-37.3,68-5.3,23.1,32,46,96,69,133.3,22.7,37.7,46,47.7,68,21.4,23.3-26.7,46-90.7,58-122.7l11-32v256H0V64Z"/>
</svg>